# xmcd
#
# Track frame offsets:
#	150
#	12145
#	26187
#	36811
#	49413
#	60700
#	76183
#	100532
#	116895
#	138301
#	152219
#	164331
#	175472
#	193031
#	213452
#	233347
#	250648
#	268638
#	284133
#	298847
#
# Disc length: 4216 seconds
#
# Revision: 0
# Processed by: cddbd v1.5.2PL0 Copyright (c) Steve Scherf et al.
# Submitted via: EasyCDDAExtractor 2010.6.0.0
#
DISCID=23107614
DTITLE=Various Artist - 100 Countryhits
DYEAR=1900
DGENRE=country
TTITLE0=Frankie Laine - High Noon (Do not Forsake Me)
TTITLE1=Johnny Cash - It Ain't Me Babe
TTITLE2=Roy Orbison - Lana
TTITLE3=Charlie Rich - The Most Beauyiful Girl
TTITLE4=Byrds - Your'e Still On My Mind
TTITLE5=Poco - You Better Think Twice
TTITLE6=Charlie Daniels - Uneasy Rider
TTITLE7=Kris Kristofferson - Who's To Bless And Who's To Blame
TTITLE8=Dr. Hook - Queen Of The Silver Dollar
TTITLE9=New Riders Of The Purple Sage - Glendale Train
TTITLE10=Johnny Paycheck - Take This Job And Shove It
TTITLE11=Tanya Tucker - Would You Lay With Me (In A Field Of Stone)
TTITLE12=Highwayman - Against The Wind
TTITLE13=Rodney Crowell - After All This Time
TTITLE14=Willie Nelson - Georgia On My Mind
TTITLE15=Shenandoah - I Got You
TTITLE16=Rosanne Cash - The Way We Make A Broken Heart
TTITLE17=Joe Diffie - Homa
TTITLE18=Dolly Parton - Eagle When She Flies
TTITLE19=Ricky Skaggs - Country Boy
EXTD=
EXTT0=
EXTT1=
EXTT2=
EXTT3=
EXTT4=
EXTT5=
EXTT6=
EXTT7=
EXTT8=
EXTT9=
EXTT10=
EXTT11=
EXTT12=
EXTT13=
EXTT14=
EXTT15=
EXTT16=
EXTT17=
EXTT18=
EXTT19=
PLAYORDER=
